<svg width="333" height="71" viewBox="0 0 333 71" fill="none" xmlns="http://www.w3.org/2000/svg">
<path d="M53.4941 20.9536C56.22 24.9637 57.5837 29.6061 57.582 34.8823C61.2607 35.3381 64.3134 37.0338 66.7402 39.9683C69.167 42.9027 70.38 46.3335 70.3779 50.2612C70.3779 54.5331 68.9786 58.1652 66.1807 61.1567C65.4244 61.9653 64.6234 62.6636 63.7793 63.2534H41.9141C39.2184 63.2533 37.0332 61.0485 37.0332 58.3286V25.8784C37.0332 23.1586 39.2184 20.9537 41.9141 20.9536H53.4941ZM28.1426 20.9536C30.8383 20.9536 33.0234 23.1585 33.0234 25.8784V58.3286C33.0234 61.0485 30.8383 63.2534 28.1426 63.2534H8.84375C7.53716 62.455 6.30888 61.4573 5.16016 60.2583C1.72232 56.6698 0.00213265 52.2835 0 47.1001C4.28873e-05 42.6573 1.25297 38.6986 3.75879 35.2241C6.26465 31.7496 9.54368 29.5284 13.5957 28.5601C14.3144 25.7347 15.4214 23.1995 16.915 20.9536H28.1426ZM37.0332 11.0288C42.0172 11.4117 46.3579 13.3722 50.0576 16.9077H41.9141C39.2186 16.9076 37.0334 14.7026 37.0332 11.9829V11.0288ZM33.0234 11.9829C33.0232 14.7026 30.8382 16.9077 28.1426 16.9077H20.3555C20.753 16.5373 21.1647 16.1772 21.5928 15.8296C25.0128 13.0527 28.8233 11.4639 33.0234 11.062V11.9829Z" fill="url(#paint0_linear_1101_35)"/>
<path d="M94.408 48.1727C92.8867 48.1727 91.5234 47.9653 90.3182 47.5504C89.1327 47.1157 88.1152 46.4834 87.2656 45.6536C86.4358 44.804 85.8035 43.7569 85.3688 42.5121C84.9342 41.2674 84.7168 39.8251 84.7168 38.1852C84.7168 36.5256 84.9342 35.0536 85.3688 33.7694C85.8233 32.4851 86.4654 31.3984 87.2952 30.5093C88.1448 29.6005 89.1426 28.9188 90.2885 28.4644C91.4345 28.01 92.7088 27.7828 94.1116 27.7828C95.1983 27.7828 96.206 27.9309 97.1346 28.2273C98.0632 28.5039 98.8634 28.909 99.5351 29.4424C100.207 29.9759 100.73 30.6279 101.106 31.3984C101.501 32.169 101.708 33.0383 101.728 34.0064L97.7866 35.0437C97.7866 34.2139 97.5989 33.5224 97.2235 32.9692C96.8678 32.4159 96.3936 32.001 95.8009 31.7244C95.2279 31.4281 94.6155 31.2799 93.9635 31.2799C93.3905 31.2799 92.8175 31.3984 92.2445 31.6355C91.6913 31.8529 91.1776 32.2282 90.7034 32.7617C90.249 33.2754 89.8736 33.9571 89.5772 34.8066C89.3006 35.6562 89.1623 36.6935 89.1623 37.9185C89.1623 39.5188 89.3895 40.813 89.844 41.8009C90.3182 42.7887 90.9603 43.5198 91.7703 43.994C92.5804 44.4484 93.4893 44.6756 94.4969 44.6756C95.5836 44.6756 96.4233 44.4583 97.016 44.0236C97.6285 43.5692 98.0632 42.9962 98.32 42.3047C98.5966 41.5934 98.7448 40.8426 98.7646 40.0523L102.499 40.6747C102.479 41.7218 102.321 42.7097 102.025 43.6383C101.728 44.5472 101.264 45.3474 100.632 46.0389C99.9994 46.7107 99.1696 47.2342 98.1422 47.6096C97.1148 47.985 95.8701 48.1727 94.408 48.1727ZM105.364 47.7578V26.5677H109.573V47.7578H105.364ZM120.55 48.1727C118.99 48.1727 117.616 47.8665 116.431 47.254C115.246 46.6217 114.317 45.703 113.645 44.4978C112.973 43.2728 112.637 41.7515 112.637 39.9338C112.637 38.116 112.973 36.6046 113.645 35.3994C114.337 34.1941 115.275 33.2952 116.461 32.7024C117.666 32.0899 119.029 31.7837 120.55 31.7837C122.111 31.7837 123.484 32.0899 124.67 32.7024C125.875 33.3149 126.814 34.2337 127.485 35.4586C128.177 36.6639 128.523 38.1753 128.523 39.993C128.523 41.8305 128.167 43.3617 127.456 44.5867C126.764 45.7919 125.816 46.6909 124.611 47.2836C123.425 47.8764 122.072 48.1727 120.55 48.1727ZM120.699 45.0016C121.469 45.0016 122.111 44.8238 122.625 44.4682C123.158 44.1125 123.554 43.5791 123.81 42.8678C124.087 42.1367 124.225 41.2575 124.225 40.2301C124.225 39.1434 124.077 38.2247 123.781 37.4739C123.504 36.7034 123.089 36.1205 122.536 35.7254C121.983 35.3105 121.281 35.103 120.432 35.103C119.701 35.103 119.069 35.2808 118.535 35.6365C118.002 35.9723 117.597 36.5058 117.32 37.2368C117.043 37.9481 116.905 38.8273 116.905 39.8745C116.905 41.5539 117.241 42.8283 117.913 43.6976C118.585 44.5669 119.513 45.0016 120.699 45.0016ZM136.832 48.1727C135.014 48.1727 133.641 47.5602 132.713 46.3353C131.804 45.0905 131.349 43.2037 131.349 40.6747V32.1986H135.617V40.1412C135.617 41.6626 135.844 42.7986 136.299 43.5494C136.753 44.2805 137.445 44.646 138.373 44.646C138.926 44.646 139.41 44.5077 139.825 44.2311C140.24 43.9545 140.596 43.5692 140.892 43.0752C141.189 42.5813 141.406 41.9984 141.544 41.3267C141.702 40.6549 141.791 39.9338 141.811 39.1632V32.1986H146.079V41.4156V47.7578H142.641L142.611 42.8974H142.078C141.781 44.1224 141.406 45.13 140.952 45.9203C140.517 46.6909 139.954 47.2639 139.262 47.6393C138.59 47.9949 137.78 48.1727 136.832 48.1727ZM155.653 48.1727C154.349 48.1727 153.203 47.8368 152.216 47.1651C151.247 46.4933 150.497 45.5449 149.963 44.32C149.43 43.095 149.163 41.6428 149.163 39.9634C149.163 38.3828 149.4 36.98 149.874 35.755C150.348 34.53 151.05 33.5718 151.978 32.8803C152.907 32.1887 154.063 31.843 155.446 31.843C156.454 31.843 157.303 32.0307 157.995 32.4061C158.686 32.7815 159.249 33.3347 159.684 34.0657C160.138 34.777 160.494 35.6365 160.751 36.6441H161.432C161.294 36.0119 161.166 35.3994 161.047 34.8066C160.948 34.1941 160.869 33.6113 160.81 33.0581C160.751 32.5049 160.721 32.0208 160.721 31.6059V26.5677H164.989V40.1116V47.7578H161.432V43.2531H160.84C160.622 44.3595 160.287 45.2782 159.832 46.0093C159.378 46.7403 158.795 47.2836 158.084 47.6393C157.392 47.9949 156.582 48.1727 155.653 48.1727ZM157.076 44.6756C157.728 44.6756 158.281 44.5373 158.736 44.2607C159.19 43.9841 159.565 43.6285 159.862 43.1938C160.158 42.7394 160.375 42.2553 160.514 41.7416C160.652 41.2081 160.721 40.7142 160.721 40.2598V39.6967C160.721 39.3213 160.662 38.936 160.543 38.5408C160.445 38.1259 160.296 37.7209 160.099 37.3257C159.901 36.9306 159.654 36.5848 159.358 36.2885C159.062 35.9723 158.716 35.7254 158.321 35.5475C157.925 35.3697 157.491 35.2808 157.017 35.2808C156.305 35.2808 155.703 35.4784 155.209 35.8735C154.715 36.2687 154.33 36.8219 154.053 37.5332C153.776 38.2247 153.638 39.0348 153.638 39.9634C153.638 40.9118 153.776 41.7416 154.053 42.4529C154.349 43.1641 154.754 43.7174 155.268 44.1125C155.782 44.4879 156.384 44.6756 157.076 44.6756ZM182.805 48.1727C181.244 48.1727 179.871 47.8665 178.685 47.254C177.5 46.6217 176.571 45.703 175.899 44.4978C175.228 43.2728 174.892 41.7515 174.892 39.9338C174.892 38.116 175.228 36.6046 175.899 35.3994C176.591 34.1941 177.529 33.2952 178.715 32.7024C179.92 32.0899 181.283 31.7837 182.805 31.7837C184.365 31.7837 185.739 32.0899 186.924 32.7024C188.129 33.3149 189.068 34.2337 189.74 35.4586C190.431 36.6639 190.777 38.1753 190.777 39.993C190.777 41.8305 190.421 43.3617 189.71 44.5867C189.018 45.7919 188.07 46.6909 186.865 47.2836C185.679 47.8764 184.326 48.1727 182.805 48.1727ZM182.953 45.0016C183.723 45.0016 184.365 44.8238 184.879 44.4682C185.413 44.1125 185.808 43.5791 186.065 42.8678C186.341 42.1367 186.48 41.2575 186.48 40.2301C186.48 39.1434 186.331 38.2247 186.035 37.4739C185.758 36.7034 185.343 36.1205 184.79 35.7254C184.237 35.3105 183.536 35.103 182.686 35.103C181.955 35.103 181.323 35.2808 180.789 35.6365C180.256 35.9723 179.851 36.5058 179.574 37.2368C179.298 37.9481 179.159 38.8273 179.159 39.8745C179.159 41.5539 179.495 42.8283 180.167 43.6976C180.839 44.5669 181.767 45.0016 182.953 45.0016ZM194.996 47.7578V37.7999H192.537V34.6584L196.686 34.8363V34.2732C195.994 34.1151 195.421 33.8681 194.967 33.5323C194.532 33.1766 194.216 32.7518 194.018 32.2579C193.821 31.7639 193.722 31.2404 193.722 30.6871C193.722 29.8376 193.939 29.1065 194.374 28.494C194.809 27.8618 195.421 27.3777 196.211 27.0418C197.002 26.6862 197.93 26.5084 198.997 26.5084C199.906 26.5084 200.726 26.6269 201.457 26.864C202.208 27.0814 202.811 27.358 203.265 27.6939L202.998 31.5466C202.524 31.2107 201.991 30.9341 201.398 30.7168C200.805 30.4995 200.242 30.3908 199.709 30.3908C199.116 30.3908 198.622 30.5488 198.227 30.865C197.851 31.1811 197.664 31.6948 197.664 32.4061C197.664 32.9 197.762 33.2952 197.96 33.5915C198.177 33.8681 198.434 34.0756 198.731 34.2139C199.047 34.3324 199.353 34.4115 199.649 34.451H203.206V37.7999H199.145V47.7578H194.996ZM215.62 47.7578L211.204 28.1977H215.857L218.761 44.1125H219.087L222.525 28.1977H227.949L231.387 44.1125H231.742L234.647 28.1977H239.062L234.587 47.7578H228.63L225.311 31.843H225.044L221.725 47.7578H215.62ZM248.098 48.1727C246.537 48.1727 245.164 47.8665 243.978 47.254C242.793 46.6217 241.864 45.703 241.192 44.4978C240.521 43.2728 240.185 41.7515 240.185 39.9338C240.185 38.116 240.521 36.6046 241.192 35.3994C241.884 34.1941 242.822 33.2952 244.008 32.7024C245.213 32.0899 246.576 31.7837 248.098 31.7837C249.659 31.7837 251.032 32.0899 252.217 32.7024C253.422 33.3149 254.361 34.2337 255.033 35.4586C255.724 36.6639 256.07 38.1753 256.07 39.993C256.07 41.8305 255.714 43.3617 255.003 44.5867C254.311 45.7919 253.363 46.6909 252.158 47.2836C250.972 47.8764 249.619 48.1727 248.098 48.1727ZM248.246 45.0016C249.016 45.0016 249.659 44.8238 250.172 44.4682C250.706 44.1125 251.101 43.5791 251.358 42.8678C251.634 42.1367 251.773 41.2575 251.773 40.2301C251.773 39.1434 251.624 38.2247 251.328 37.4739C251.051 36.7034 250.637 36.1205 250.083 35.7254C249.53 35.3105 248.829 35.103 247.979 35.103C247.248 35.103 246.616 35.2808 246.082 35.6365C245.549 35.9723 245.144 36.5058 244.867 37.2368C244.591 37.9481 244.452 38.8273 244.452 39.8745C244.452 41.5539 244.788 42.8283 245.46 43.6976C246.132 44.5669 247.06 45.0016 248.246 45.0016ZM259.104 47.7578V40.2301V32.1986H262.631L262.66 37.5036H263.223C263.382 36.1798 263.648 35.103 264.024 34.2732C264.419 33.4433 264.962 32.8309 265.654 32.4357C266.345 32.0406 267.205 31.843 268.232 31.843C268.41 31.843 268.598 31.8529 268.795 31.8726C269.012 31.8726 269.259 31.9022 269.536 31.9615L269.358 36.4959C269.062 36.3576 268.736 36.2588 268.38 36.1996C268.025 36.1403 267.708 36.1106 267.432 36.1106C266.661 36.1106 265.999 36.2885 265.446 36.6441C264.893 36.9997 264.439 37.5134 264.083 38.1852C263.747 38.8372 263.52 39.6374 263.401 40.5858V47.7578H259.104ZM278.149 48.1727C277.102 48.1727 276.153 48.0739 275.304 47.8764C274.454 47.6788 273.723 47.3923 273.111 47.0169C272.498 46.6415 272.004 46.197 271.629 45.6833C271.253 45.1498 271.007 44.5571 270.888 43.9051L274.148 42.5714C274.227 43.0061 274.444 43.4111 274.8 43.7865C275.156 44.1619 275.63 44.4682 276.223 44.7052C276.835 44.9226 277.566 45.0312 278.416 45.0312C279.325 45.0312 280.026 44.9028 280.52 44.646C281.014 44.3694 281.261 43.9841 281.261 43.4901C281.261 43.1148 281.122 42.8184 280.846 42.601C280.569 42.3837 280.164 42.196 279.631 42.038C279.097 41.8799 278.455 41.7317 277.704 41.5934C276.973 41.4156 276.223 41.2279 275.452 41.0303C274.701 40.8327 274 40.5561 273.348 40.2005C272.716 39.8448 272.192 39.3805 271.777 38.8076C271.382 38.2148 271.184 37.464 271.184 36.5552C271.184 35.6068 271.441 34.777 271.955 34.0657C272.469 33.3544 273.219 32.8012 274.207 32.4061C275.195 31.9912 276.4 31.7837 277.823 31.7837C279.107 31.7837 280.233 31.9615 281.201 32.3172C282.17 32.653 282.96 33.147 283.572 33.799C284.205 34.4312 284.629 35.1919 284.847 36.081L281.379 37.2368C281.3 36.7626 281.103 36.3477 280.787 35.9921C280.49 35.6365 280.085 35.3697 279.571 35.1919C279.078 35.0141 278.495 34.9252 277.823 34.9252C276.973 34.9252 276.311 35.0635 275.837 35.3401C275.383 35.6167 275.156 35.9822 275.156 36.4366C275.156 36.812 275.304 37.1183 275.6 37.3554C275.916 37.5925 276.351 37.79 276.904 37.9481C277.457 38.0864 278.109 38.2346 278.86 38.3927C279.651 38.5507 280.421 38.7384 281.172 38.9558C281.923 39.1533 282.594 39.4201 283.187 39.7559C283.8 40.0918 284.284 40.5364 284.639 41.0896C284.995 41.6428 285.173 42.3541 285.173 43.2234C285.173 44.2508 284.896 45.1399 284.343 45.8907C283.79 46.6217 282.99 47.1848 281.942 47.58C280.895 47.9751 279.631 48.1727 278.149 48.1727ZM288.104 47.7578V37.9777V26.5677H292.401V31.4281C292.401 31.8232 292.381 32.2381 292.342 32.6728C292.322 33.1075 292.273 33.552 292.194 34.0064C292.134 34.4411 292.065 34.8857 291.986 35.3401C291.927 35.7945 291.858 36.2489 291.779 36.7034H292.431C292.707 35.6957 293.053 34.8264 293.468 34.0954C293.903 33.3643 294.456 32.8012 295.128 32.4061C295.799 31.9912 296.649 31.7837 297.676 31.7837C299.494 31.7837 300.857 32.4258 301.766 33.7101C302.675 34.9746 303.13 36.9207 303.13 39.5485V47.7578H298.832V40.2005C298.832 38.5408 298.585 37.3159 298.091 36.5256C297.617 35.7155 296.896 35.3105 295.928 35.3105C295.138 35.3105 294.486 35.5475 293.972 36.0217C293.458 36.4959 293.073 37.138 292.816 37.9481C292.559 38.7384 292.411 39.6275 292.371 40.6154V47.7578H288.104ZM306.8 47.7578V32.1986H311.068V47.7578H306.8ZM308.964 29.8573C308.134 29.8573 307.492 29.6894 307.037 29.3535C306.603 28.9979 306.385 28.4842 306.385 27.8124C306.385 27.1209 306.603 26.5973 307.037 26.2417C307.492 25.886 308.134 25.7082 308.964 25.7082C309.813 25.7082 310.455 25.886 310.89 26.2417C311.345 26.5973 311.572 27.1209 311.572 27.8124C311.572 28.4644 311.345 28.9682 310.89 29.3239C310.455 29.6795 309.813 29.8573 308.964 29.8573ZM315.02 52.7368V40.1116V32.1986H318.547L318.576 36.5256L319.11 36.5552C319.288 35.508 319.594 34.6288 320.028 33.9175C320.483 33.2063 321.066 32.6728 321.777 32.3172C322.488 31.9615 323.308 31.7837 324.237 31.7837C325.62 31.7837 326.805 32.1295 327.793 32.821C328.781 33.4927 329.532 34.451 330.046 35.6957C330.579 36.9207 330.846 38.3729 330.846 40.0523C330.846 41.6132 330.609 43.0061 330.134 44.2311C329.66 45.4363 328.949 46.3945 328.001 47.1058C327.072 47.8171 325.906 48.1727 324.504 48.1727C323.516 48.1727 322.676 47.985 321.984 47.6096C321.313 47.2342 320.75 46.7107 320.295 46.0389C319.86 45.3474 319.495 44.5274 319.199 43.5791H318.636C318.754 44.1125 318.863 44.6559 318.962 45.2091C319.06 45.7623 319.139 46.3056 319.199 46.8391C319.258 47.3528 319.288 47.8566 319.288 48.3505V52.7368H315.02ZM323.022 44.7645C323.733 44.7645 324.336 44.5669 324.83 44.1718C325.323 43.7766 325.699 43.2234 325.956 42.5121C326.232 41.8009 326.371 40.9908 326.371 40.0819C326.371 39.0941 326.232 38.2544 325.956 37.5628C325.679 36.8516 325.284 36.2983 324.77 35.9032C324.257 35.508 323.644 35.3105 322.933 35.3105C322.301 35.3105 321.757 35.4488 321.303 35.7254C320.848 36.002 320.463 36.3675 320.147 36.8219C319.851 37.2763 319.633 37.7703 319.495 38.3037C319.357 38.8174 319.288 39.3114 319.288 39.7856V40.3487C319.288 40.7241 319.337 41.1192 319.436 41.5341C319.534 41.9293 319.693 42.3244 319.91 42.7196C320.127 43.095 320.384 43.4408 320.68 43.7569C320.977 44.0532 321.323 44.3002 321.718 44.4978C322.113 44.6756 322.548 44.7645 323.022 44.7645Z" fill="black"/>
<defs>
<linearGradient id="paint0_linear_1101_35" x1="5.75819" y1="34.0697" x2="58.5418" y2="34.5394" gradientUnits="userSpaceOnUse">
<stop stop-color="#A855F7"/>
<stop offset="0.486687" stop-color="#8946C9"/>
<stop offset="0.617689" stop-color="#8946C9"/>
<stop offset="1" stop-color="#A855F7"/>
</linearGradient>
</defs>
</svg>
