<svg width="333" height="71" viewBox="0 0 333 71" fill="none" xmlns="http://www.w3.org/2000/svg">
<path d="M53.4941 20.9536C56.22 24.9637 57.5837 29.6061 57.582 34.8823C61.2607 35.3381 64.3134 37.0338 66.7402 39.9683C69.167 42.9027 70.38 46.3335 70.3779 50.2612C70.3779 54.5331 68.9786 58.1652 66.1807 61.1567C65.4244 61.9653 64.6234 62.6636 63.7793 63.2534H41.9141C39.2184 63.2533 37.0332 61.0485 37.0332 58.3286V25.8784C37.0332 23.1586 39.2184 20.9537 41.9141 20.9536H53.4941ZM28.1426 20.9536C30.8383 20.9536 33.0234 23.1585 33.0234 25.8784V58.3286C33.0234 61.0485 30.8383 63.2534 28.1426 63.2534H8.84375C7.53716 62.455 6.30888 61.4573 5.16016 60.2583C1.72232 56.6698 0.00213265 52.2835 0 47.1001C4.28873e-05 42.6573 1.25297 38.6986 3.75879 35.2241C6.26465 31.7496 9.54368 29.5284 13.5957 28.5601C14.3144 25.7347 15.4214 23.1995 16.915 20.9536H28.1426ZM37.0332 11.0288C42.0172 11.4117 46.3579 13.3722 50.0576 16.9077H41.9141C39.2186 16.9076 37.0334 14.7026 37.0332 11.9829V11.0288ZM33.0234 11.9829C33.0232 14.7026 30.8382 16.9077 28.1426 16.9077H20.3555C20.753 16.5373 21.1647 16.1772 21.5928 15.8296C25.0128 13.0527 28.8233 11.4639 33.0234 11.062V11.9829Z" fill="url(#paint0_linear_1101_35)"/>
<path d="M94.408 61.4149C92.8867 61.4149 91.5234 61.2075 90.3182 60.7925C89.1327 60.3579 88.1152 59.7256 87.2656 58.8958C86.4358 58.0462 85.8035 56.9991 85.3688 55.7543C84.9342 54.5096 84.7168 53.0673 84.7168 51.4274C84.7168 49.7677 84.9342 48.2958 85.3688 47.0115C85.8233 45.7273 86.4654 44.6406 87.2952 43.7515C88.1448 42.8427 89.1426 42.161 90.2885 41.7066C91.4345 41.2522 92.7088 41.025 94.1116 41.025C95.1983 41.025 96.206 41.1731 97.1346 41.4695C98.0632 41.7461 98.8634 42.1511 99.5351 42.6846C100.207 43.2181 100.73 43.8701 101.106 44.6406C101.501 45.4112 101.708 46.2805 101.728 47.2486L97.7866 48.2859C97.7866 47.4561 97.5989 46.7646 97.2235 46.2114C96.8678 45.6581 96.3936 45.2432 95.8009 44.9666C95.2279 44.6702 94.6155 44.5221 93.9635 44.5221C93.3905 44.5221 92.8175 44.6406 92.2445 44.8777C91.6913 45.095 91.1776 45.4704 90.7034 46.0039C90.249 46.5176 89.8736 47.1992 89.5772 48.0488C89.3006 48.8984 89.1623 49.9357 89.1623 51.1607C89.1623 52.761 89.3895 54.0552 89.844 55.043C90.3182 56.0309 90.9603 56.762 91.7703 57.2362C92.5804 57.6906 93.4893 57.9178 94.4969 57.9178C95.5836 57.9178 96.4233 57.7005 97.016 57.2658C97.6285 56.8114 98.0632 56.2384 98.32 55.5469C98.5966 54.8356 98.7448 54.0848 98.7646 53.2945L102.499 53.9169C102.479 54.964 102.321 55.9519 102.025 56.8805C101.728 57.7894 101.264 58.5896 100.632 59.2811C99.9994 59.9528 99.1696 60.4764 98.1422 60.8518C97.1148 61.2272 95.8701 61.4149 94.408 61.4149ZM105.364 61V39.8099H109.573V61H105.364ZM120.55 61.4149C118.99 61.4149 117.616 61.1087 116.431 60.4962C115.246 59.8639 114.317 58.9452 113.645 57.74C112.973 56.515 112.637 54.9937 112.637 53.1759C112.637 51.3582 112.973 49.8468 113.645 48.6416C114.337 47.4363 115.275 46.5374 116.461 45.9446C117.666 45.3321 119.029 45.0259 120.55 45.0259C122.111 45.0259 123.484 45.3321 124.67 45.9446C125.875 46.5571 126.814 47.4758 127.485 48.7008C128.177 49.906 128.523 51.4175 128.523 53.2352C128.523 55.0727 128.167 56.6039 127.456 57.8289C126.764 59.0341 125.816 59.9331 124.611 60.5258C123.425 61.1185 122.072 61.4149 120.55 61.4149ZM120.699 58.2438C121.469 58.2438 122.111 58.066 122.625 57.7103C123.158 57.3547 123.554 56.8212 123.81 56.11C124.087 55.3789 124.225 54.4997 124.225 53.4723C124.225 52.3856 124.077 51.4669 123.781 50.7161C123.504 49.9456 123.089 49.3627 122.536 48.9676C121.983 48.5526 121.281 48.3452 120.432 48.3452C119.701 48.3452 119.069 48.523 118.535 48.8786C118.002 49.2145 117.597 49.748 117.32 50.479C117.043 51.1903 116.905 52.0695 116.905 53.1167C116.905 54.7961 117.241 56.0705 117.913 56.9398C118.585 57.8091 119.513 58.2438 120.699 58.2438ZM136.832 61.4149C135.014 61.4149 133.641 60.8024 132.713 59.5774C131.804 58.3327 131.349 56.4458 131.349 53.9169V45.4408H135.617V53.3834C135.617 54.9047 135.844 56.0408 136.299 56.7916C136.753 57.5226 137.445 57.8882 138.373 57.8882C138.926 57.8882 139.41 57.7499 139.825 57.4732C140.24 57.1966 140.596 56.8114 140.892 56.3174C141.189 55.8235 141.406 55.2406 141.544 54.5689C141.702 53.8971 141.791 53.1759 141.811 52.4054V45.4408H146.079V54.6578V61H142.641L142.611 56.1396H142.078C141.781 57.3646 141.406 58.3722 140.952 59.1625C140.517 59.9331 139.954 60.5061 139.262 60.8815C138.59 61.2371 137.78 61.4149 136.832 61.4149ZM155.653 61.4149C154.349 61.4149 153.203 61.079 152.216 60.4073C151.247 59.7355 150.497 58.7871 149.963 57.5622C149.43 56.3372 149.163 54.885 149.163 53.2056C149.163 51.625 149.4 50.2222 149.874 48.9972C150.348 47.7722 151.05 46.814 151.978 46.1224C152.907 45.4309 154.063 45.0852 155.446 45.0852C156.454 45.0852 157.303 45.2729 157.995 45.6483C158.686 46.0237 159.249 46.5769 159.684 47.3079C160.138 48.0192 160.494 48.8786 160.751 49.8863H161.432C161.294 49.254 161.166 48.6416 161.047 48.0488C160.948 47.4363 160.869 46.8535 160.81 46.3003C160.751 45.747 160.721 45.263 160.721 44.8481V39.8099H164.989V53.3538V61H161.432V56.4952H160.84C160.622 57.6017 160.287 58.5204 159.832 59.2514C159.378 59.9825 158.795 60.5258 158.084 60.8815C157.392 61.2371 156.582 61.4149 155.653 61.4149ZM157.076 57.9178C157.728 57.9178 158.281 57.7795 158.736 57.5029C159.19 57.2263 159.565 56.8706 159.862 56.436C160.158 55.9815 160.375 55.4975 160.514 54.9838C160.652 54.4503 160.721 53.9564 160.721 53.5019V52.9389C160.721 52.5635 160.662 52.1782 160.543 51.783C160.445 51.3681 160.296 50.9631 160.099 50.5679C159.901 50.1728 159.654 49.827 159.358 49.5306C159.062 49.2145 158.716 48.9676 158.321 48.7897C157.925 48.6119 157.491 48.523 157.017 48.523C156.305 48.523 155.703 48.7206 155.209 49.1157C154.715 49.5109 154.33 50.0641 154.053 50.7754C153.776 51.4669 153.638 52.277 153.638 53.2056C153.638 54.154 153.776 54.9838 154.053 55.6951C154.349 56.4063 154.754 56.9595 155.268 57.3547C155.782 57.7301 156.384 57.9178 157.076 57.9178ZM182.805 61.4149C181.244 61.4149 179.871 61.1087 178.685 60.4962C177.5 59.8639 176.571 58.9452 175.899 57.74C175.228 56.515 174.892 54.9937 174.892 53.1759C174.892 51.3582 175.228 49.8468 175.899 48.6416C176.591 47.4363 177.529 46.5374 178.715 45.9446C179.92 45.3321 181.283 45.0259 182.805 45.0259C184.365 45.0259 185.739 45.3321 186.924 45.9446C188.129 46.5571 189.068 47.4758 189.74 48.7008C190.431 49.906 190.777 51.4175 190.777 53.2352C190.777 55.0727 190.421 56.6039 189.71 57.8289C189.018 59.0341 188.07 59.9331 186.865 60.5258C185.679 61.1185 184.326 61.4149 182.805 61.4149ZM182.953 58.2438C183.723 58.2438 184.365 58.066 184.879 57.7103C185.413 57.3547 185.808 56.8212 186.065 56.11C186.341 55.3789 186.48 54.4997 186.48 53.4723C186.48 52.3856 186.331 51.4669 186.035 50.7161C185.758 49.9456 185.343 49.3627 184.79 48.9676C184.237 48.5526 183.536 48.3452 182.686 48.3452C181.955 48.3452 181.323 48.523 180.789 48.8786C180.256 49.2145 179.851 49.748 179.574 50.479C179.298 51.1903 179.159 52.0695 179.159 53.1167C179.159 54.7961 179.495 56.0705 180.167 56.9398C180.839 57.8091 181.767 58.2438 182.953 58.2438ZM194.996 61V51.0421H192.537V47.9006L196.686 48.0785V47.5154C195.994 47.3573 195.421 47.1103 194.967 46.7744C194.532 46.4188 194.216 45.994 194.018 45.5001C193.821 45.0061 193.722 44.4826 193.722 43.9293C193.722 43.0798 193.939 42.3487 194.374 41.7362C194.809 41.104 195.421 40.6199 196.211 40.284C197.002 39.9284 197.93 39.7506 198.997 39.7506C199.906 39.7506 200.726 39.8691 201.457 40.1062C202.208 40.3236 202.811 40.6002 203.265 40.936L202.998 44.7888C202.524 44.4529 201.991 44.1763 201.398 43.959C200.805 43.7416 200.242 43.633 199.709 43.633C199.116 43.633 198.622 43.791 198.227 44.1072C197.851 44.4233 197.664 44.937 197.664 45.6483C197.664 46.1422 197.762 46.5374 197.96 46.8337C198.177 47.1103 198.434 47.3178 198.731 47.4561C199.047 47.5746 199.353 47.6537 199.649 47.6932H203.206V51.0421H199.145V61H194.996ZM215.62 61L211.204 41.4399H215.857L218.761 57.3547H219.087L222.525 41.4399H227.949L231.387 57.3547H231.742L234.647 41.4399H239.062L234.587 61H228.63L225.311 45.0852H225.044L221.725 61H215.62ZM248.098 61.4149C246.537 61.4149 245.164 61.1087 243.978 60.4962C242.793 59.8639 241.864 58.9452 241.192 57.74C240.521 56.515 240.185 54.9937 240.185 53.1759C240.185 51.3582 240.521 49.8468 241.192 48.6416C241.884 47.4363 242.822 46.5374 244.008 45.9446C245.213 45.3321 246.576 45.0259 248.098 45.0259C249.659 45.0259 251.032 45.3321 252.217 45.9446C253.422 46.5571 254.361 47.4758 255.033 48.7008C255.724 49.906 256.07 51.4175 256.07 53.2352C256.07 55.0727 255.714 56.6039 255.003 57.8289C254.311 59.0341 253.363 59.9331 252.158 60.5258C250.972 61.1185 249.619 61.4149 248.098 61.4149ZM248.246 58.2438C249.016 58.2438 249.659 58.066 250.172 57.7103C250.706 57.3547 251.101 56.8212 251.358 56.11C251.634 55.3789 251.773 54.4997 251.773 53.4723C251.773 52.3856 251.624 51.4669 251.328 50.7161C251.051 49.9456 250.637 49.3627 250.083 48.9676C249.53 48.5526 248.829 48.3452 247.979 48.3452C247.248 48.3452 246.616 48.523 246.082 48.8786C245.549 49.2145 245.144 49.748 244.867 50.479C244.591 51.1903 244.452 52.0695 244.452 53.1167C244.452 54.7961 244.788 56.0705 245.46 56.9398C246.132 57.8091 247.06 58.2438 248.246 58.2438ZM259.104 61V53.4723V45.4408H262.631L262.66 50.7457H263.223C263.382 49.422 263.648 48.3452 264.024 47.5154C264.419 46.6855 264.962 46.073 265.654 45.6779C266.345 45.2827 267.205 45.0852 268.232 45.0852C268.41 45.0852 268.598 45.095 268.795 45.1148C269.012 45.1148 269.259 45.1444 269.536 45.2037L269.358 49.7381C269.062 49.5998 268.736 49.501 268.38 49.4417C268.025 49.3825 267.708 49.3528 267.432 49.3528C266.661 49.3528 265.999 49.5306 265.446 49.8863C264.893 50.2419 264.439 50.7556 264.083 51.4274C263.747 52.0794 263.52 52.8796 263.401 53.828V61H259.104ZM278.149 61.4149C277.102 61.4149 276.153 61.3161 275.304 61.1185C274.454 60.921 273.723 60.6345 273.111 60.2591C272.498 59.8837 272.004 59.4391 271.629 58.9254C271.253 58.392 271.007 57.7993 270.888 57.1472L274.148 55.8136C274.227 56.2483 274.444 56.6533 274.8 57.0287C275.156 57.4041 275.63 57.7103 276.223 57.9474C276.835 58.1648 277.566 58.2734 278.416 58.2734C279.325 58.2734 280.026 58.145 280.52 57.8882C281.014 57.6116 281.261 57.2263 281.261 56.7323C281.261 56.3569 281.122 56.0606 280.846 55.8432C280.569 55.6259 280.164 55.4382 279.631 55.2801C279.097 55.1221 278.455 54.9739 277.704 54.8356C276.973 54.6578 276.223 54.4701 275.452 54.2725C274.701 54.0749 274 53.7983 273.348 53.4427C272.716 53.087 272.192 52.6227 271.777 52.0498C271.382 51.457 271.184 50.7062 271.184 49.7974C271.184 48.849 271.441 48.0192 271.955 47.3079C272.469 46.5966 273.219 46.0434 274.207 45.6483C275.195 45.2333 276.4 45.0259 277.823 45.0259C279.107 45.0259 280.233 45.2037 281.201 45.5593C282.17 45.8952 282.96 46.3892 283.572 47.0412C284.205 47.6734 284.629 48.4341 284.847 49.3232L281.379 50.479C281.3 50.0048 281.103 49.5899 280.787 49.2343C280.49 48.8786 280.085 48.6119 279.571 48.4341C279.078 48.2563 278.495 48.1674 277.823 48.1674C276.973 48.1674 276.311 48.3057 275.837 48.5823C275.383 48.8589 275.156 49.2244 275.156 49.6788C275.156 50.0542 275.304 50.3605 275.6 50.5976C275.916 50.8347 276.351 51.0322 276.904 51.1903C277.457 51.3286 278.109 51.4768 278.86 51.6348C279.651 51.7929 280.421 51.9806 281.172 52.1979C281.923 52.3955 282.594 52.6622 283.187 52.9981C283.8 53.334 284.284 53.7786 284.639 54.3318C284.995 54.885 285.173 55.5963 285.173 56.4656C285.173 57.493 284.896 58.3821 284.343 59.1329C283.79 59.8639 282.99 60.427 281.942 60.8222C280.895 61.2173 279.631 61.4149 278.149 61.4149ZM288.104 61V51.2199V39.8099H292.401V44.6703C292.401 45.0654 292.381 45.4803 292.342 45.915C292.322 46.3497 292.273 46.7942 292.194 47.2486C292.134 47.6833 292.065 48.1278 291.986 48.5823C291.927 49.0367 291.858 49.4911 291.779 49.9456H292.431C292.707 48.9379 293.053 48.0686 293.468 47.3375C293.903 46.6065 294.456 46.0434 295.128 45.6483C295.799 45.2333 296.649 45.0259 297.676 45.0259C299.494 45.0259 300.857 45.668 301.766 46.9523C302.675 48.2168 303.13 50.1629 303.13 52.7907V61H298.832V53.4427C298.832 51.783 298.585 50.558 298.091 49.7677C297.617 48.9577 296.896 48.5526 295.928 48.5526C295.138 48.5526 294.486 48.7897 293.972 49.2639C293.458 49.7381 293.073 50.3802 292.816 51.1903C292.559 51.9806 292.411 52.8697 292.371 53.8576V61H288.104ZM306.8 61V45.4408H311.068V61H306.8ZM308.964 43.0995C308.134 43.0995 307.492 42.9316 307.037 42.5957C306.603 42.2401 306.385 41.7264 306.385 41.0546C306.385 40.3631 306.603 39.8395 307.037 39.4839C307.492 39.1282 308.134 38.9504 308.964 38.9504C309.813 38.9504 310.455 39.1282 310.89 39.4839C311.345 39.8395 311.572 40.3631 311.572 41.0546C311.572 41.7066 311.345 42.2104 310.89 42.5661C310.455 42.9217 309.813 43.0995 308.964 43.0995ZM315.02 65.9789V53.3538V45.4408H318.547L318.576 49.7677L319.11 49.7974C319.288 48.7502 319.594 47.871 320.028 47.1597C320.483 46.4484 321.066 45.915 321.777 45.5593C322.488 45.2037 323.308 45.0259 324.237 45.0259C325.62 45.0259 326.805 45.3716 327.793 46.0632C328.781 46.7349 329.532 47.6932 330.046 48.9379C330.579 50.1629 330.846 51.6151 330.846 53.2945C330.846 54.8554 330.609 56.2483 330.134 57.4732C329.66 58.6785 328.949 59.6367 328.001 60.348C327.072 61.0593 325.906 61.4149 324.504 61.4149C323.516 61.4149 322.676 61.2272 321.984 60.8518C321.313 60.4764 320.75 59.9528 320.295 59.2811C319.86 58.5896 319.495 57.7696 319.199 56.8212H318.636C318.754 57.3547 318.863 57.898 318.962 58.4513C319.06 59.0045 319.139 59.5478 319.199 60.0813C319.258 60.595 319.288 61.0988 319.288 61.5927V65.9789H315.02ZM323.022 58.0067C323.733 58.0067 324.336 57.8091 324.83 57.414C325.323 57.0188 325.699 56.4656 325.956 55.7543C326.232 55.043 326.371 54.233 326.371 53.3241C326.371 52.3362 326.232 51.4965 325.956 50.805C325.679 50.0937 325.284 49.5405 324.77 49.1454C324.257 48.7502 323.644 48.5526 322.933 48.5526C322.301 48.5526 321.757 48.6909 321.303 48.9676C320.848 49.2442 320.463 49.6097 320.147 50.0641C319.851 50.5185 319.633 51.0125 319.495 51.5459C319.357 52.0596 319.288 52.5536 319.288 53.0278V53.5909C319.288 53.9663 319.337 54.3614 319.436 54.7763C319.534 55.1715 319.693 55.5666 319.91 55.9618C320.127 56.3372 320.384 56.6829 320.68 56.9991C320.977 57.2954 321.323 57.5424 321.718 57.74C322.113 57.9178 322.548 58.0067 323.022 58.0067Z" fill="black"/>
<path d="M84.304 30V15.8732H87.1096V30H84.304ZM93.5997 33.5959C93.0728 33.5959 92.5328 33.5432 91.9796 33.4378C91.4395 33.3456 90.9258 33.1942 90.4385 32.9834C89.9643 32.7858 89.556 32.529 89.2135 32.2129L90.0236 29.7827C90.4451 30.2173 90.9719 30.54 91.6042 30.7508C92.2364 30.9747 92.8621 31.0867 93.4812 31.0867C94.1793 31.0867 94.7588 30.9418 95.2198 30.652C95.694 30.3754 96.0497 29.9473 96.2868 29.3678C96.537 28.775 96.6819 28.0374 96.7214 27.1549L96.84 25.3569H96.4053C96.2736 26.2263 96.0562 26.9376 95.7533 27.4908C95.4635 28.044 95.0881 28.4523 94.6271 28.7157C94.1793 28.966 93.6458 29.0911 93.0267 29.0911C92.2759 29.0911 91.6437 28.9002 91.13 28.5182C90.6163 28.1362 90.2277 27.5632 89.9643 26.7993C89.714 26.0353 89.5889 25.0935 89.5889 23.9739V19.6272H92.434V23.2824C92.434 24.5074 92.5723 25.3899 92.8489 25.9299C93.1255 26.47 93.547 26.74 94.1134 26.74C94.4164 26.74 94.693 26.6609 94.9432 26.5029C95.1935 26.3317 95.4042 26.088 95.5755 25.7718C95.7599 25.4557 95.8982 25.0737 95.9904 24.6259C96.0958 24.1649 96.1485 23.6446 96.1485 23.065V19.6272H98.9936V27.2537C98.9936 28.0835 98.9211 28.8409 98.7762 29.5258C98.6313 30.1976 98.414 30.7837 98.1242 31.2843C97.8476 31.798 97.492 32.226 97.0573 32.5685C96.6226 32.911 96.1155 33.1678 95.536 33.3391C94.9696 33.5103 94.3242 33.5959 93.5997 33.5959ZM101.553 30V24.9815V19.6272H103.905L103.924 23.1638H104.3C104.405 22.2813 104.583 21.5635 104.833 21.0102C105.097 20.457 105.459 20.0487 105.92 19.7853C106.381 19.5218 106.954 19.3901 107.639 19.3901C107.757 19.3901 107.882 19.3967 108.014 19.4099C108.159 19.4099 108.324 19.4296 108.508 19.4691L108.39 22.4921C108.192 22.3999 107.975 22.334 107.738 22.2945C107.5 22.255 107.29 22.2352 107.105 22.2352C106.592 22.2352 106.15 22.3538 105.782 22.5909C105.413 22.8279 105.11 23.1704 104.873 23.6183C104.649 24.0529 104.497 24.5864 104.418 25.2186V30H101.553ZM110.12 30V19.6272H112.965V30H110.12ZM111.563 18.0663C111.009 18.0663 110.581 17.9544 110.278 17.7305C109.989 17.4934 109.844 17.1509 109.844 16.7031C109.844 16.242 109.989 15.893 110.278 15.6559C110.581 15.4188 111.009 15.3003 111.563 15.3003C112.129 15.3003 112.557 15.4188 112.847 15.6559C113.15 15.893 113.301 16.242 113.301 16.7031C113.301 17.1377 113.15 17.4736 112.847 17.7107C112.557 17.9478 112.129 18.0663 111.563 18.0663ZM120.401 30.2766C119.505 30.2766 118.722 30.1449 118.05 29.8815C117.378 29.618 116.818 29.2492 116.37 28.775C115.923 28.3008 115.587 27.741 115.363 27.0956C115.139 26.437 115.027 25.7192 115.027 24.942C115.027 24.1254 115.139 23.3812 115.363 22.7094C115.6 22.0245 115.942 21.4317 116.39 20.9312C116.838 20.4307 117.391 20.0421 118.05 19.7655C118.708 19.4889 119.459 19.3506 120.302 19.3506C121.145 19.3506 121.876 19.4889 122.495 19.7655C123.128 20.0421 123.635 20.4307 124.017 20.9312C124.412 21.4186 124.682 21.9981 124.827 22.6699L122.199 23.5195C122.159 23.1111 122.048 22.7621 121.863 22.4723C121.692 22.1694 121.455 21.9454 121.152 21.8005C120.862 21.6425 120.533 21.5635 120.164 21.5635C119.782 21.5635 119.453 21.6425 119.176 21.8005C118.899 21.9454 118.662 22.1628 118.465 22.4526C118.28 22.7292 118.135 23.0716 118.03 23.48C117.938 23.8751 117.892 24.323 117.892 24.8235C117.892 25.5348 117.984 26.1407 118.168 26.6412C118.366 27.1285 118.649 27.5039 119.018 27.7674C119.4 28.0176 119.868 28.1428 120.421 28.1428C120.948 28.1428 121.369 28.044 121.685 27.8464C122.001 27.6357 122.232 27.3722 122.377 27.0561C122.535 26.7268 122.634 26.3909 122.673 26.0485L125.163 26.6017C125.097 27.1154 124.952 27.5961 124.728 28.044C124.517 28.4918 124.214 28.8804 123.819 29.2097C123.424 29.539 122.943 29.8024 122.377 30C121.824 30.1844 121.165 30.2766 120.401 30.2766ZM131.094 30.2766C130.396 30.2766 129.764 30.2107 129.198 30.079C128.631 29.9473 128.144 29.7563 127.735 29.5061C127.327 29.2558 126.998 28.9594 126.748 28.617C126.497 28.2613 126.333 27.8662 126.254 27.4315L128.427 26.5424C128.48 26.8322 128.625 27.1022 128.862 27.3525C129.099 27.6027 129.415 27.8069 129.81 27.965C130.218 28.1098 130.706 28.1823 131.272 28.1823C131.878 28.1823 132.346 28.0967 132.675 27.9254C133.004 27.741 133.169 27.4842 133.169 27.1549C133.169 26.9046 133.077 26.707 132.892 26.5622C132.708 26.4173 132.438 26.2921 132.082 26.1868C131.727 26.0814 131.298 25.9826 130.798 25.8904C130.311 25.7718 129.81 25.6467 129.296 25.515C128.796 25.3833 128.328 25.1989 127.894 24.9618C127.472 24.7247 127.123 24.4152 126.846 24.0332C126.583 23.638 126.451 23.1375 126.451 22.5316C126.451 21.8993 126.622 21.3461 126.965 20.8719C127.307 20.3978 127.808 20.0289 128.467 19.7655C129.125 19.4889 129.929 19.3506 130.877 19.3506C131.733 19.3506 132.484 19.4691 133.129 19.7062C133.775 19.9302 134.302 20.2594 134.71 20.6941C135.131 21.1156 135.415 21.6227 135.56 22.2155L133.248 22.986C133.195 22.6699 133.063 22.3933 132.853 22.1562C132.655 21.9191 132.385 21.7413 132.043 21.6227C131.713 21.5042 131.325 21.4449 130.877 21.4449C130.311 21.4449 129.869 21.5371 129.553 21.7215C129.25 21.9059 129.099 22.1496 129.099 22.4526C129.099 22.7028 129.198 22.907 129.395 23.065C129.606 23.2231 129.896 23.3548 130.264 23.4602C130.633 23.5524 131.068 23.6512 131.568 23.7566C132.095 23.8619 132.609 23.9871 133.11 24.132C133.61 24.2637 134.058 24.4415 134.453 24.6654C134.861 24.8893 135.184 25.1857 135.421 25.5545C135.658 25.9233 135.777 26.3975 135.777 26.9771C135.777 27.662 135.592 28.2547 135.224 28.7553C134.855 29.2426 134.321 29.618 133.623 29.8815C132.925 30.1449 132.082 30.2766 131.094 30.2766ZM147.798 30.2569C147.139 30.2569 146.573 30.1251 146.099 29.8617C145.638 29.5983 145.262 29.2426 144.972 28.7948C144.696 28.3338 144.485 27.8135 144.34 27.2339H144.024L144.123 30H142.503V24.9618V16.1696H144.32V19.3703C144.32 19.7128 144.301 20.075 144.261 20.457C144.235 20.8258 144.189 21.2078 144.123 21.603C144.07 21.9981 144.011 22.3801 143.945 22.7489H144.301C144.446 22.1957 144.656 21.6754 144.933 21.1881C145.209 20.7007 145.578 20.3055 146.039 20.0026C146.513 19.6996 147.1 19.5482 147.798 19.5482C148.667 19.5482 149.405 19.7787 150.011 20.2397C150.63 20.6875 151.104 21.3132 151.433 22.1167C151.762 22.9202 151.927 23.8554 151.927 24.9223C151.927 25.9497 151.762 26.8651 151.433 27.6686C151.117 28.4721 150.649 29.1043 150.03 29.5653C149.424 30.0263 148.68 30.2569 147.798 30.2569ZM147.363 28.6762C147.929 28.6762 148.41 28.5248 148.805 28.2218C149.201 27.9189 149.503 27.4842 149.714 26.9178C149.938 26.3514 150.05 25.6928 150.05 24.942C150.05 24.2044 149.945 23.5524 149.734 22.986C149.523 22.4065 149.22 21.952 148.825 21.6227C148.43 21.2803 147.943 21.109 147.363 21.109C146.942 21.109 146.566 21.1946 146.237 21.3659C145.908 21.5239 145.618 21.7413 145.368 22.0179C145.13 22.2945 144.933 22.5974 144.775 22.9267C144.617 23.256 144.498 23.5853 144.419 23.9146C144.34 24.2439 144.301 24.5469 144.301 24.8235V25.0606C144.301 25.4557 144.366 25.8641 144.498 26.2855C144.643 26.707 144.847 27.1022 145.111 27.471C145.374 27.8267 145.697 28.1164 146.079 28.3404C146.461 28.5643 146.889 28.6762 147.363 28.6762ZM158.063 33.4378C157.523 33.4378 156.99 33.372 156.463 33.2403C155.949 33.1217 155.475 32.9373 155.04 32.687C154.606 32.4368 154.25 32.1141 153.973 31.7189L154.882 30.4149C155.185 30.8628 155.613 31.2052 156.166 31.4423C156.72 31.6794 157.325 31.798 157.984 31.798C158.722 31.798 159.334 31.6333 159.822 31.304C160.322 30.9879 160.697 30.4939 160.948 29.8222C161.198 29.1372 161.33 28.2877 161.343 27.2734L161.56 25.2186H161.185C161.04 26.1802 160.809 26.9507 160.493 27.5303C160.19 28.0967 159.808 28.505 159.347 28.7553C158.9 29.0055 158.379 29.1307 157.786 29.1307C157.049 29.1307 156.423 28.9463 155.91 28.5774C155.409 28.1955 155.027 27.6422 154.764 26.9178C154.5 26.1802 154.368 25.2845 154.368 24.2307V19.7853H156.166V23.8356C156.166 25.1133 156.344 26.055 156.7 26.6609C157.069 27.2537 157.615 27.55 158.34 27.55C158.735 27.55 159.091 27.4513 159.407 27.2537C159.723 27.0561 159.993 26.7663 160.217 26.3843C160.454 26.0024 160.638 25.5216 160.77 24.942C160.915 24.3493 161.007 23.6644 161.047 22.8872V19.7853H162.844V27.3722C162.844 28.1757 162.785 28.9002 162.667 29.5456C162.548 30.191 162.357 30.7508 162.094 31.225C161.843 31.7123 161.527 32.1207 161.145 32.45C160.763 32.7793 160.315 33.0229 159.802 33.181C159.288 33.3522 158.709 33.4378 158.063 33.4378Z" fill="black"/>
<defs>
<linearGradient id="paint0_linear_1101_35" x1="5.75819" y1="34.0697" x2="58.5418" y2="34.5394" gradientUnits="userSpaceOnUse">
<stop stop-color="#A855F7"/>
<stop offset="0.486687" stop-color="#8946C9"/>
<stop offset="0.617689" stop-color="#8946C9"/>
<stop offset="1" stop-color="#A855F7"/>
</linearGradient>
</defs>
</svg>
